<mxfile host="app.diagrams.net" agent="Mozilla/5.0 (Windows NT 10.0; Win64; x64) AppleWebKit/537.36 (KHTML, like Gecko) Chrome/132.0.0.0 Safari/537.36 OPR/117.0.0.0" version="26.1.3">
  <diagram name="Page-1" id="7IMZ4CptTVtmwv4k-fld">
    <mxGraphModel dx="3313" dy="784" grid="1" gridSize="10" guides="1" tooltips="1" connect="1" arrows="1" fold="1" page="1" pageScale="1" pageWidth="827" pageHeight="1169" math="0" shadow="0">
      <root>
        <mxCell id="0" />
        <mxCell id="1" parent="0" />
        <mxCell id="U3UQ6ggZmRZWPa7_rUBg-1" value="Restaurant" style="shape=table;startSize=30;container=1;collapsible=1;childLayout=tableLayout;fixedRows=1;rowLines=0;fontStyle=1;align=center;resizeLast=1;html=1;strokeColor=#BAC8D3;fontColor=#182E3E;fillColor=#B1DDF0;" vertex="1" parent="1">
          <mxGeometry x="80" y="490" width="180" height="150" as="geometry" />
        </mxCell>
        <mxCell id="U3UQ6ggZmRZWPa7_rUBg-2" value="" style="shape=tableRow;horizontal=0;startSize=0;swimlaneHead=0;swimlaneBody=0;fillColor=none;collapsible=0;dropTarget=0;points=[[0,0.5],[1,0.5]];portConstraint=eastwest;top=0;left=0;right=0;bottom=1;strokeColor=#BAC8D3;fontColor=#182E3E;" vertex="1" parent="U3UQ6ggZmRZWPa7_rUBg-1">
          <mxGeometry y="30" width="180" height="30" as="geometry" />
        </mxCell>
        <mxCell id="U3UQ6ggZmRZWPa7_rUBg-3" value="PK" style="shape=partialRectangle;connectable=0;fillColor=none;top=0;left=0;bottom=0;right=0;fontStyle=1;overflow=hidden;whiteSpace=wrap;html=1;strokeColor=#BAC8D3;fontColor=#182E3E;" vertex="1" parent="U3UQ6ggZmRZWPa7_rUBg-2">
          <mxGeometry width="30" height="30" as="geometry">
            <mxRectangle width="30" height="30" as="alternateBounds" />
          </mxGeometry>
        </mxCell>
        <mxCell id="U3UQ6ggZmRZWPa7_rUBg-4" value="restaurantID" style="shape=partialRectangle;connectable=0;fillColor=none;top=0;left=0;bottom=0;right=0;align=left;spacingLeft=6;fontStyle=5;overflow=hidden;whiteSpace=wrap;html=1;strokeColor=#BAC8D3;fontColor=#182E3E;" vertex="1" parent="U3UQ6ggZmRZWPa7_rUBg-2">
          <mxGeometry x="30" width="150" height="30" as="geometry">
            <mxRectangle width="150" height="30" as="alternateBounds" />
          </mxGeometry>
        </mxCell>
        <mxCell id="U3UQ6ggZmRZWPa7_rUBg-5" value="" style="shape=tableRow;horizontal=0;startSize=0;swimlaneHead=0;swimlaneBody=0;fillColor=none;collapsible=0;dropTarget=0;points=[[0,0.5],[1,0.5]];portConstraint=eastwest;top=0;left=0;right=0;bottom=0;strokeColor=#BAC8D3;fontColor=#182E3E;" vertex="1" parent="U3UQ6ggZmRZWPa7_rUBg-1">
          <mxGeometry y="60" width="180" height="30" as="geometry" />
        </mxCell>
        <mxCell id="U3UQ6ggZmRZWPa7_rUBg-6" value="" style="shape=partialRectangle;connectable=0;fillColor=none;top=0;left=0;bottom=0;right=0;editable=1;overflow=hidden;whiteSpace=wrap;html=1;strokeColor=#BAC8D3;fontColor=#182E3E;" vertex="1" parent="U3UQ6ggZmRZWPa7_rUBg-5">
          <mxGeometry width="30" height="30" as="geometry">
            <mxRectangle width="30" height="30" as="alternateBounds" />
          </mxGeometry>
        </mxCell>
        <mxCell id="U3UQ6ggZmRZWPa7_rUBg-7" value="rName" style="shape=partialRectangle;connectable=0;fillColor=none;top=0;left=0;bottom=0;right=0;align=left;spacingLeft=6;overflow=hidden;whiteSpace=wrap;html=1;strokeColor=#BAC8D3;fontColor=#182E3E;" vertex="1" parent="U3UQ6ggZmRZWPa7_rUBg-5">
          <mxGeometry x="30" width="150" height="30" as="geometry">
            <mxRectangle width="150" height="30" as="alternateBounds" />
          </mxGeometry>
        </mxCell>
        <mxCell id="U3UQ6ggZmRZWPa7_rUBg-8" value="" style="shape=tableRow;horizontal=0;startSize=0;swimlaneHead=0;swimlaneBody=0;fillColor=none;collapsible=0;dropTarget=0;points=[[0,0.5],[1,0.5]];portConstraint=eastwest;top=0;left=0;right=0;bottom=0;strokeColor=#BAC8D3;fontColor=#182E3E;" vertex="1" parent="U3UQ6ggZmRZWPa7_rUBg-1">
          <mxGeometry y="90" width="180" height="30" as="geometry" />
        </mxCell>
        <mxCell id="U3UQ6ggZmRZWPa7_rUBg-9" value="" style="shape=partialRectangle;connectable=0;fillColor=none;top=0;left=0;bottom=0;right=0;editable=1;overflow=hidden;whiteSpace=wrap;html=1;strokeColor=#BAC8D3;fontColor=#182E3E;" vertex="1" parent="U3UQ6ggZmRZWPa7_rUBg-8">
          <mxGeometry width="30" height="30" as="geometry">
            <mxRectangle width="30" height="30" as="alternateBounds" />
          </mxGeometry>
        </mxCell>
        <mxCell id="U3UQ6ggZmRZWPa7_rUBg-10" value="address" style="shape=partialRectangle;connectable=0;fillColor=none;top=0;left=0;bottom=0;right=0;align=left;spacingLeft=6;overflow=hidden;whiteSpace=wrap;html=1;strokeColor=#BAC8D3;fontColor=#182E3E;" vertex="1" parent="U3UQ6ggZmRZWPa7_rUBg-8">
          <mxGeometry x="30" width="150" height="30" as="geometry">
            <mxRectangle width="150" height="30" as="alternateBounds" />
          </mxGeometry>
        </mxCell>
        <mxCell id="U3UQ6ggZmRZWPa7_rUBg-11" value="" style="shape=tableRow;horizontal=0;startSize=0;swimlaneHead=0;swimlaneBody=0;fillColor=none;collapsible=0;dropTarget=0;points=[[0,0.5],[1,0.5]];portConstraint=eastwest;top=0;left=0;right=0;bottom=0;strokeColor=#BAC8D3;fontColor=#182E3E;" vertex="1" parent="U3UQ6ggZmRZWPa7_rUBg-1">
          <mxGeometry y="120" width="180" height="30" as="geometry" />
        </mxCell>
        <mxCell id="U3UQ6ggZmRZWPa7_rUBg-12" value="" style="shape=partialRectangle;connectable=0;fillColor=none;top=0;left=0;bottom=0;right=0;editable=1;overflow=hidden;whiteSpace=wrap;html=1;strokeColor=#BAC8D3;fontColor=#182E3E;" vertex="1" parent="U3UQ6ggZmRZWPa7_rUBg-11">
          <mxGeometry width="30" height="30" as="geometry">
            <mxRectangle width="30" height="30" as="alternateBounds" />
          </mxGeometry>
        </mxCell>
        <mxCell id="U3UQ6ggZmRZWPa7_rUBg-13" value="phoneNr" style="shape=partialRectangle;connectable=0;fillColor=none;top=0;left=0;bottom=0;right=0;align=left;spacingLeft=6;overflow=hidden;whiteSpace=wrap;html=1;strokeColor=#BAC8D3;fontColor=#182E3E;" vertex="1" parent="U3UQ6ggZmRZWPa7_rUBg-11">
          <mxGeometry x="30" width="150" height="30" as="geometry">
            <mxRectangle width="150" height="30" as="alternateBounds" />
          </mxGeometry>
        </mxCell>
        <mxCell id="U3UQ6ggZmRZWPa7_rUBg-26" value="FoodItem" style="shape=table;startSize=30;container=1;collapsible=1;childLayout=tableLayout;fixedRows=1;rowLines=0;fontStyle=1;align=center;resizeLast=1;html=1;strokeColor=#BAC8D3;fontColor=#182E3E;fillColor=#B1DDF0;" vertex="1" parent="1">
          <mxGeometry x="80" y="20" width="180" height="360" as="geometry">
            <mxRectangle x="100" y="20" width="90" height="30" as="alternateBounds" />
          </mxGeometry>
        </mxCell>
        <mxCell id="U3UQ6ggZmRZWPa7_rUBg-27" value="" style="shape=tableRow;horizontal=0;startSize=0;swimlaneHead=0;swimlaneBody=0;fillColor=none;collapsible=0;dropTarget=0;points=[[0,0.5],[1,0.5]];portConstraint=eastwest;top=0;left=0;right=0;bottom=1;strokeColor=#BAC8D3;fontColor=#182E3E;" vertex="1" parent="U3UQ6ggZmRZWPa7_rUBg-26">
          <mxGeometry y="30" width="180" height="30" as="geometry" />
        </mxCell>
        <mxCell id="U3UQ6ggZmRZWPa7_rUBg-28" value="PK" style="shape=partialRectangle;connectable=0;fillColor=none;top=0;left=0;bottom=0;right=0;fontStyle=1;overflow=hidden;whiteSpace=wrap;html=1;strokeColor=#BAC8D3;fontColor=#182E3E;" vertex="1" parent="U3UQ6ggZmRZWPa7_rUBg-27">
          <mxGeometry width="30" height="30" as="geometry">
            <mxRectangle width="30" height="30" as="alternateBounds" />
          </mxGeometry>
        </mxCell>
        <mxCell id="U3UQ6ggZmRZWPa7_rUBg-29" value="itemID" style="shape=partialRectangle;connectable=0;fillColor=none;top=0;left=0;bottom=0;right=0;align=left;spacingLeft=6;fontStyle=5;overflow=hidden;whiteSpace=wrap;html=1;strokeColor=#BAC8D3;fontColor=#182E3E;" vertex="1" parent="U3UQ6ggZmRZWPa7_rUBg-27">
          <mxGeometry x="30" width="150" height="30" as="geometry">
            <mxRectangle width="150" height="30" as="alternateBounds" />
          </mxGeometry>
        </mxCell>
        <mxCell id="U3UQ6ggZmRZWPa7_rUBg-39" value="" style="shape=tableRow;horizontal=0;startSize=0;swimlaneHead=0;swimlaneBody=0;fillColor=none;collapsible=0;dropTarget=0;points=[[0,0.5],[1,0.5]];portConstraint=eastwest;top=0;left=0;right=0;bottom=0;strokeColor=#BAC8D3;fontColor=#182E3E;" vertex="1" parent="U3UQ6ggZmRZWPa7_rUBg-26">
          <mxGeometry y="60" width="180" height="30" as="geometry" />
        </mxCell>
        <mxCell id="U3UQ6ggZmRZWPa7_rUBg-40" value="FK" style="shape=partialRectangle;connectable=0;fillColor=none;top=0;left=0;bottom=0;right=0;fontStyle=0;overflow=hidden;whiteSpace=wrap;html=1;strokeColor=#BAC8D3;fontColor=#182E3E;" vertex="1" parent="U3UQ6ggZmRZWPa7_rUBg-39">
          <mxGeometry width="30" height="30" as="geometry">
            <mxRectangle width="30" height="30" as="alternateBounds" />
          </mxGeometry>
        </mxCell>
        <mxCell id="U3UQ6ggZmRZWPa7_rUBg-41" value="restaurantID" style="shape=partialRectangle;connectable=0;fillColor=none;top=0;left=0;bottom=0;right=0;align=left;spacingLeft=6;fontStyle=0;overflow=hidden;whiteSpace=wrap;html=1;strokeColor=#BAC8D3;fontColor=#182E3E;" vertex="1" parent="U3UQ6ggZmRZWPa7_rUBg-39">
          <mxGeometry x="30" width="150" height="30" as="geometry">
            <mxRectangle width="150" height="30" as="alternateBounds" />
          </mxGeometry>
        </mxCell>
        <mxCell id="U3UQ6ggZmRZWPa7_rUBg-33" value="" style="shape=tableRow;horizontal=0;startSize=0;swimlaneHead=0;swimlaneBody=0;fillColor=none;collapsible=0;dropTarget=0;points=[[0,0.5],[1,0.5]];portConstraint=eastwest;top=0;left=0;right=0;bottom=0;strokeColor=#BAC8D3;fontColor=#182E3E;" vertex="1" parent="U3UQ6ggZmRZWPa7_rUBg-26">
          <mxGeometry y="90" width="180" height="30" as="geometry" />
        </mxCell>
        <mxCell id="U3UQ6ggZmRZWPa7_rUBg-34" value="" style="shape=partialRectangle;connectable=0;fillColor=none;top=0;left=0;bottom=0;right=0;editable=1;overflow=hidden;whiteSpace=wrap;html=1;strokeColor=#BAC8D3;fontColor=#182E3E;" vertex="1" parent="U3UQ6ggZmRZWPa7_rUBg-33">
          <mxGeometry width="30" height="30" as="geometry">
            <mxRectangle width="30" height="30" as="alternateBounds" />
          </mxGeometry>
        </mxCell>
        <mxCell id="U3UQ6ggZmRZWPa7_rUBg-35" value="foodName" style="shape=partialRectangle;connectable=0;fillColor=none;top=0;left=0;bottom=0;right=0;align=left;spacingLeft=6;overflow=hidden;whiteSpace=wrap;html=1;strokeColor=#BAC8D3;fontColor=#182E3E;" vertex="1" parent="U3UQ6ggZmRZWPa7_rUBg-33">
          <mxGeometry x="30" width="150" height="30" as="geometry">
            <mxRectangle width="150" height="30" as="alternateBounds" />
          </mxGeometry>
        </mxCell>
        <mxCell id="U3UQ6ggZmRZWPa7_rUBg-36" value="" style="shape=tableRow;horizontal=0;startSize=0;swimlaneHead=0;swimlaneBody=0;fillColor=none;collapsible=0;dropTarget=0;points=[[0,0.5],[1,0.5]];portConstraint=eastwest;top=0;left=0;right=0;bottom=0;strokeColor=#BAC8D3;fontColor=#182E3E;" vertex="1" parent="U3UQ6ggZmRZWPa7_rUBg-26">
          <mxGeometry y="120" width="180" height="30" as="geometry" />
        </mxCell>
        <mxCell id="U3UQ6ggZmRZWPa7_rUBg-37" value="" style="shape=partialRectangle;connectable=0;fillColor=none;top=0;left=0;bottom=0;right=0;editable=1;overflow=hidden;whiteSpace=wrap;html=1;strokeColor=#BAC8D3;fontColor=#182E3E;" vertex="1" parent="U3UQ6ggZmRZWPa7_rUBg-36">
          <mxGeometry width="30" height="30" as="geometry">
            <mxRectangle width="30" height="30" as="alternateBounds" />
          </mxGeometry>
        </mxCell>
        <mxCell id="U3UQ6ggZmRZWPa7_rUBg-38" value="price" style="shape=partialRectangle;connectable=0;fillColor=none;top=0;left=0;bottom=0;right=0;align=left;spacingLeft=6;overflow=hidden;whiteSpace=wrap;html=1;strokeColor=#BAC8D3;fontColor=#182E3E;" vertex="1" parent="U3UQ6ggZmRZWPa7_rUBg-36">
          <mxGeometry x="30" width="150" height="30" as="geometry">
            <mxRectangle width="150" height="30" as="alternateBounds" />
          </mxGeometry>
        </mxCell>
        <mxCell id="U3UQ6ggZmRZWPa7_rUBg-45" value="" style="shape=tableRow;horizontal=0;startSize=0;swimlaneHead=0;swimlaneBody=0;fillColor=none;collapsible=0;dropTarget=0;points=[[0,0.5],[1,0.5]];portConstraint=eastwest;top=0;left=0;right=0;bottom=0;strokeColor=#BAC8D3;fontColor=#182E3E;" vertex="1" parent="U3UQ6ggZmRZWPa7_rUBg-26">
          <mxGeometry y="150" width="180" height="30" as="geometry" />
        </mxCell>
        <mxCell id="U3UQ6ggZmRZWPa7_rUBg-46" value="" style="shape=partialRectangle;connectable=0;fillColor=none;top=0;left=0;bottom=0;right=0;editable=1;overflow=hidden;strokeColor=#BAC8D3;fontColor=#182E3E;" vertex="1" parent="U3UQ6ggZmRZWPa7_rUBg-45">
          <mxGeometry width="30" height="30" as="geometry">
            <mxRectangle width="30" height="30" as="alternateBounds" />
          </mxGeometry>
        </mxCell>
        <mxCell id="U3UQ6ggZmRZWPa7_rUBg-47" value="type" style="shape=partialRectangle;connectable=0;fillColor=none;top=0;left=0;bottom=0;right=0;align=left;spacingLeft=6;overflow=hidden;strokeColor=#BAC8D3;fontColor=#182E3E;" vertex="1" parent="U3UQ6ggZmRZWPa7_rUBg-45">
          <mxGeometry x="30" width="150" height="30" as="geometry">
            <mxRectangle width="150" height="30" as="alternateBounds" />
          </mxGeometry>
        </mxCell>
        <mxCell id="U3UQ6ggZmRZWPa7_rUBg-42" value="" style="shape=tableRow;horizontal=0;startSize=0;swimlaneHead=0;swimlaneBody=0;fillColor=none;collapsible=0;dropTarget=0;points=[[0,0.5],[1,0.5]];portConstraint=eastwest;top=0;left=0;right=0;bottom=0;strokeColor=#BAC8D3;fontColor=#182E3E;" vertex="1" parent="U3UQ6ggZmRZWPa7_rUBg-26">
          <mxGeometry y="180" width="180" height="30" as="geometry" />
        </mxCell>
        <mxCell id="U3UQ6ggZmRZWPa7_rUBg-43" value="" style="shape=partialRectangle;connectable=0;fillColor=none;top=0;left=0;bottom=0;right=0;editable=1;overflow=hidden;strokeColor=#BAC8D3;fontColor=#182E3E;" vertex="1" parent="U3UQ6ggZmRZWPa7_rUBg-42">
          <mxGeometry width="30" height="30" as="geometry">
            <mxRectangle width="30" height="30" as="alternateBounds" />
          </mxGeometry>
        </mxCell>
        <mxCell id="U3UQ6ggZmRZWPa7_rUBg-44" value="description" style="shape=partialRectangle;connectable=0;fillColor=none;top=0;left=0;bottom=0;right=0;align=left;spacingLeft=6;overflow=hidden;strokeColor=#BAC8D3;fontColor=#182E3E;" vertex="1" parent="U3UQ6ggZmRZWPa7_rUBg-42">
          <mxGeometry x="30" width="150" height="30" as="geometry">
            <mxRectangle width="150" height="30" as="alternateBounds" />
          </mxGeometry>
        </mxCell>
        <mxCell id="U3UQ6ggZmRZWPa7_rUBg-48" value="" style="shape=tableRow;horizontal=0;startSize=0;swimlaneHead=0;swimlaneBody=0;fillColor=none;collapsible=0;dropTarget=0;points=[[0,0.5],[1,0.5]];portConstraint=eastwest;top=0;left=0;right=0;bottom=0;strokeColor=#BAC8D3;fontColor=#182E3E;" vertex="1" parent="U3UQ6ggZmRZWPa7_rUBg-26">
          <mxGeometry y="210" width="180" height="150" as="geometry" />
        </mxCell>
        <mxCell id="U3UQ6ggZmRZWPa7_rUBg-49" value="" style="shape=partialRectangle;connectable=0;fillColor=none;top=0;left=0;bottom=0;right=0;editable=1;overflow=hidden;strokeColor=#BAC8D3;fontColor=#182E3E;" vertex="1" parent="U3UQ6ggZmRZWPa7_rUBg-48">
          <mxGeometry width="30" height="150" as="geometry">
            <mxRectangle width="30" height="150" as="alternateBounds" />
          </mxGeometry>
        </mxCell>
        <mxCell id="U3UQ6ggZmRZWPa7_rUBg-50" value="allergens&#xa;    milk&#xa;    eggs&#xa;    fish&#xa;    shellfish&#xa;    peanuts&#xa;    tree nuts&#xa;    soy&#xa;    wheat&#xa;    sesame seeds" style="shape=partialRectangle;connectable=0;fillColor=none;top=0;left=0;bottom=0;right=0;align=left;spacingLeft=6;overflow=hidden;strokeColor=#BAC8D3;fontColor=#182E3E;" vertex="1" parent="U3UQ6ggZmRZWPa7_rUBg-48">
          <mxGeometry x="30" width="150" height="150" as="geometry">
            <mxRectangle width="150" height="150" as="alternateBounds" />
          </mxGeometry>
        </mxCell>
        <mxCell id="U3UQ6ggZmRZWPa7_rUBg-204" style="edgeStyle=orthogonalEdgeStyle;rounded=0;orthogonalLoop=1;jettySize=auto;html=1;strokeColor=light-dark(#000000, #202020);fontColor=#FFFFFF;exitX=1;exitY=0.5;exitDx=0;exitDy=0;entryX=0;entryY=0.5;entryDx=0;entryDy=0;endArrow=none;startFill=0;" edge="1" parent="1" source="U3UQ6ggZmRZWPa7_rUBg-82">
          <mxGeometry relative="1" as="geometry">
            <mxPoint x="1325" y="95" as="targetPoint" />
          </mxGeometry>
        </mxCell>
        <mxCell id="U3UQ6ggZmRZWPa7_rUBg-69" value="ItemOrded" style="shape=table;startSize=30;container=1;collapsible=1;childLayout=tableLayout;fixedRows=1;rowLines=0;fontStyle=1;align=center;resizeLast=1;html=1;strokeColor=#BAC8D3;fontColor=#182E3E;fillColor=#B1DDF0;" vertex="1" parent="1">
          <mxGeometry x="965" y="20" width="180" height="180" as="geometry" />
        </mxCell>
        <mxCell id="U3UQ6ggZmRZWPa7_rUBg-70" value="" style="shape=tableRow;horizontal=0;startSize=0;swimlaneHead=0;swimlaneBody=0;fillColor=none;collapsible=0;dropTarget=0;points=[[0,0.5],[1,0.5]];portConstraint=eastwest;top=0;left=0;right=0;bottom=1;strokeColor=#BAC8D3;fontColor=#182E3E;" vertex="1" parent="U3UQ6ggZmRZWPa7_rUBg-69">
          <mxGeometry y="30" width="180" height="30" as="geometry" />
        </mxCell>
        <mxCell id="U3UQ6ggZmRZWPa7_rUBg-71" value="PK" style="shape=partialRectangle;connectable=0;fillColor=none;top=0;left=0;bottom=0;right=0;fontStyle=1;overflow=hidden;whiteSpace=wrap;html=1;strokeColor=#BAC8D3;fontColor=#182E3E;" vertex="1" parent="U3UQ6ggZmRZWPa7_rUBg-70">
          <mxGeometry width="30" height="30" as="geometry">
            <mxRectangle width="30" height="30" as="alternateBounds" />
          </mxGeometry>
        </mxCell>
        <mxCell id="U3UQ6ggZmRZWPa7_rUBg-72" value="itemOrderID" style="shape=partialRectangle;connectable=0;fillColor=none;top=0;left=0;bottom=0;right=0;align=left;spacingLeft=6;fontStyle=5;overflow=hidden;whiteSpace=wrap;html=1;strokeColor=#BAC8D3;fontColor=#182E3E;" vertex="1" parent="U3UQ6ggZmRZWPa7_rUBg-70">
          <mxGeometry x="30" width="150" height="30" as="geometry">
            <mxRectangle width="150" height="30" as="alternateBounds" />
          </mxGeometry>
        </mxCell>
        <mxCell id="U3UQ6ggZmRZWPa7_rUBg-82" value="" style="shape=tableRow;horizontal=0;startSize=0;swimlaneHead=0;swimlaneBody=0;fillColor=none;collapsible=0;dropTarget=0;points=[[0,0.5],[1,0.5]];portConstraint=eastwest;top=0;left=0;right=0;bottom=0;strokeColor=#BAC8D3;fontColor=#182E3E;" vertex="1" parent="U3UQ6ggZmRZWPa7_rUBg-69">
          <mxGeometry y="60" width="180" height="30" as="geometry" />
        </mxCell>
        <mxCell id="U3UQ6ggZmRZWPa7_rUBg-83" value="FK" style="shape=partialRectangle;connectable=0;fillColor=none;top=0;left=0;bottom=0;right=0;fontStyle=0;overflow=hidden;whiteSpace=wrap;html=1;strokeColor=#BAC8D3;fontColor=#182E3E;" vertex="1" parent="U3UQ6ggZmRZWPa7_rUBg-82">
          <mxGeometry width="30" height="30" as="geometry">
            <mxRectangle width="30" height="30" as="alternateBounds" />
          </mxGeometry>
        </mxCell>
        <mxCell id="U3UQ6ggZmRZWPa7_rUBg-84" value="orderID" style="shape=partialRectangle;connectable=0;fillColor=none;top=0;left=0;bottom=0;right=0;align=left;spacingLeft=6;fontStyle=0;overflow=hidden;whiteSpace=wrap;html=1;strokeColor=#BAC8D3;fontColor=#182E3E;" vertex="1" parent="U3UQ6ggZmRZWPa7_rUBg-82">
          <mxGeometry x="30" width="150" height="30" as="geometry">
            <mxRectangle width="150" height="30" as="alternateBounds" />
          </mxGeometry>
        </mxCell>
        <mxCell id="U3UQ6ggZmRZWPa7_rUBg-85" value="" style="shape=tableRow;horizontal=0;startSize=0;swimlaneHead=0;swimlaneBody=0;fillColor=none;collapsible=0;dropTarget=0;points=[[0,0.5],[1,0.5]];portConstraint=eastwest;top=0;left=0;right=0;bottom=0;strokeColor=#BAC8D3;fontColor=#182E3E;" vertex="1" parent="U3UQ6ggZmRZWPa7_rUBg-69">
          <mxGeometry y="90" width="180" height="30" as="geometry" />
        </mxCell>
        <mxCell id="U3UQ6ggZmRZWPa7_rUBg-86" value="FK" style="shape=partialRectangle;connectable=0;fillColor=none;top=0;left=0;bottom=0;right=0;fontStyle=0;overflow=hidden;whiteSpace=wrap;html=1;strokeColor=#BAC8D3;fontColor=#182E3E;" vertex="1" parent="U3UQ6ggZmRZWPa7_rUBg-85">
          <mxGeometry width="30" height="30" as="geometry">
            <mxRectangle width="30" height="30" as="alternateBounds" />
          </mxGeometry>
        </mxCell>
        <mxCell id="U3UQ6ggZmRZWPa7_rUBg-87" value="itemID" style="shape=partialRectangle;connectable=0;fillColor=none;top=0;left=0;bottom=0;right=0;align=left;spacingLeft=6;fontStyle=0;overflow=hidden;whiteSpace=wrap;html=1;strokeColor=#BAC8D3;fontColor=#182E3E;" vertex="1" parent="U3UQ6ggZmRZWPa7_rUBg-85">
          <mxGeometry x="30" width="150" height="30" as="geometry">
            <mxRectangle width="150" height="30" as="alternateBounds" />
          </mxGeometry>
        </mxCell>
        <mxCell id="U3UQ6ggZmRZWPa7_rUBg-76" value="" style="shape=tableRow;horizontal=0;startSize=0;swimlaneHead=0;swimlaneBody=0;fillColor=none;collapsible=0;dropTarget=0;points=[[0,0.5],[1,0.5]];portConstraint=eastwest;top=0;left=0;right=0;bottom=0;strokeColor=#BAC8D3;fontColor=#182E3E;" vertex="1" parent="U3UQ6ggZmRZWPa7_rUBg-69">
          <mxGeometry y="120" width="180" height="30" as="geometry" />
        </mxCell>
        <mxCell id="U3UQ6ggZmRZWPa7_rUBg-77" value="" style="shape=partialRectangle;connectable=0;fillColor=none;top=0;left=0;bottom=0;right=0;editable=1;overflow=hidden;whiteSpace=wrap;html=1;strokeColor=#BAC8D3;fontColor=#182E3E;" vertex="1" parent="U3UQ6ggZmRZWPa7_rUBg-76">
          <mxGeometry width="30" height="30" as="geometry">
            <mxRectangle width="30" height="30" as="alternateBounds" />
          </mxGeometry>
        </mxCell>
        <mxCell id="U3UQ6ggZmRZWPa7_rUBg-78" value="Address" style="shape=partialRectangle;connectable=0;fillColor=none;top=0;left=0;bottom=0;right=0;align=left;spacingLeft=6;overflow=hidden;whiteSpace=wrap;html=1;strokeColor=#BAC8D3;fontColor=#182E3E;" vertex="1" parent="U3UQ6ggZmRZWPa7_rUBg-76">
          <mxGeometry x="30" width="150" height="30" as="geometry">
            <mxRectangle width="150" height="30" as="alternateBounds" />
          </mxGeometry>
        </mxCell>
        <mxCell id="U3UQ6ggZmRZWPa7_rUBg-79" value="" style="shape=tableRow;horizontal=0;startSize=0;swimlaneHead=0;swimlaneBody=0;fillColor=none;collapsible=0;dropTarget=0;points=[[0,0.5],[1,0.5]];portConstraint=eastwest;top=0;left=0;right=0;bottom=0;strokeColor=#BAC8D3;fontColor=#182E3E;" vertex="1" parent="U3UQ6ggZmRZWPa7_rUBg-69">
          <mxGeometry y="150" width="180" height="30" as="geometry" />
        </mxCell>
        <mxCell id="U3UQ6ggZmRZWPa7_rUBg-80" value="" style="shape=partialRectangle;connectable=0;fillColor=none;top=0;left=0;bottom=0;right=0;editable=1;overflow=hidden;whiteSpace=wrap;html=1;strokeColor=#BAC8D3;fontColor=#182E3E;" vertex="1" parent="U3UQ6ggZmRZWPa7_rUBg-79">
          <mxGeometry width="30" height="30" as="geometry">
            <mxRectangle width="30" height="30" as="alternateBounds" />
          </mxGeometry>
        </mxCell>
        <mxCell id="U3UQ6ggZmRZWPa7_rUBg-81" value="phoneNr" style="shape=partialRectangle;connectable=0;fillColor=none;top=0;left=0;bottom=0;right=0;align=left;spacingLeft=6;overflow=hidden;whiteSpace=wrap;html=1;strokeColor=#BAC8D3;fontColor=#182E3E;" vertex="1" parent="U3UQ6ggZmRZWPa7_rUBg-79">
          <mxGeometry x="30" width="150" height="30" as="geometry">
            <mxRectangle width="150" height="30" as="alternateBounds" />
          </mxGeometry>
        </mxCell>
        <mxCell id="U3UQ6ggZmRZWPa7_rUBg-88" value="Orded" style="shape=table;startSize=30;container=1;collapsible=1;childLayout=tableLayout;fixedRows=1;rowLines=0;fontStyle=1;align=center;resizeLast=1;html=1;strokeColor=#BAC8D3;fontColor=#182E3E;fillColor=#B1DDF0;" vertex="1" parent="1">
          <mxGeometry x="1325" y="20" width="180" height="210" as="geometry" />
        </mxCell>
        <mxCell id="U3UQ6ggZmRZWPa7_rUBg-89" value="" style="shape=tableRow;horizontal=0;startSize=0;swimlaneHead=0;swimlaneBody=0;fillColor=none;collapsible=0;dropTarget=0;points=[[0,0.5],[1,0.5]];portConstraint=eastwest;top=0;left=0;right=0;bottom=1;strokeColor=#BAC8D3;fontColor=#182E3E;" vertex="1" parent="U3UQ6ggZmRZWPa7_rUBg-88">
          <mxGeometry y="30" width="180" height="30" as="geometry" />
        </mxCell>
        <mxCell id="U3UQ6ggZmRZWPa7_rUBg-90" value="PK" style="shape=partialRectangle;connectable=0;fillColor=none;top=0;left=0;bottom=0;right=0;fontStyle=1;overflow=hidden;whiteSpace=wrap;html=1;strokeColor=#BAC8D3;fontColor=#182E3E;" vertex="1" parent="U3UQ6ggZmRZWPa7_rUBg-89">
          <mxGeometry width="30" height="30" as="geometry">
            <mxRectangle width="30" height="30" as="alternateBounds" />
          </mxGeometry>
        </mxCell>
        <mxCell id="U3UQ6ggZmRZWPa7_rUBg-91" value="orderID" style="shape=partialRectangle;connectable=0;fillColor=none;top=0;left=0;bottom=0;right=0;align=left;spacingLeft=6;fontStyle=5;overflow=hidden;whiteSpace=wrap;html=1;strokeColor=#BAC8D3;fontColor=#182E3E;" vertex="1" parent="U3UQ6ggZmRZWPa7_rUBg-89">
          <mxGeometry x="30" width="150" height="30" as="geometry">
            <mxRectangle width="150" height="30" as="alternateBounds" />
          </mxGeometry>
        </mxCell>
        <mxCell id="U3UQ6ggZmRZWPa7_rUBg-95" value="" style="shape=tableRow;horizontal=0;startSize=0;swimlaneHead=0;swimlaneBody=0;fillColor=none;collapsible=0;dropTarget=0;points=[[0,0.5],[1,0.5]];portConstraint=eastwest;top=0;left=0;right=0;bottom=0;strokeColor=#BAC8D3;fontColor=#182E3E;" vertex="1" parent="U3UQ6ggZmRZWPa7_rUBg-88">
          <mxGeometry y="60" width="180" height="30" as="geometry" />
        </mxCell>
        <mxCell id="U3UQ6ggZmRZWPa7_rUBg-96" value="FK" style="shape=partialRectangle;connectable=0;fillColor=none;top=0;left=0;bottom=0;right=0;fontStyle=0;overflow=hidden;whiteSpace=wrap;html=1;strokeColor=#BAC8D3;fontColor=#182E3E;" vertex="1" parent="U3UQ6ggZmRZWPa7_rUBg-95">
          <mxGeometry width="30" height="30" as="geometry">
            <mxRectangle width="30" height="30" as="alternateBounds" />
          </mxGeometry>
        </mxCell>
        <mxCell id="U3UQ6ggZmRZWPa7_rUBg-97" value="itemID" style="shape=partialRectangle;connectable=0;fillColor=none;top=0;left=0;bottom=0;right=0;align=left;spacingLeft=6;fontStyle=0;overflow=hidden;whiteSpace=wrap;html=1;strokeColor=#BAC8D3;fontColor=#182E3E;" vertex="1" parent="U3UQ6ggZmRZWPa7_rUBg-95">
          <mxGeometry x="30" width="150" height="30" as="geometry">
            <mxRectangle width="150" height="30" as="alternateBounds" />
          </mxGeometry>
        </mxCell>
        <mxCell id="U3UQ6ggZmRZWPa7_rUBg-129" value="" style="shape=tableRow;horizontal=0;startSize=0;swimlaneHead=0;swimlaneBody=0;fillColor=none;collapsible=0;dropTarget=0;points=[[0,0.5],[1,0.5]];portConstraint=eastwest;top=0;left=0;right=0;bottom=0;strokeColor=#BAC8D3;fontColor=#182E3E;" vertex="1" parent="U3UQ6ggZmRZWPa7_rUBg-88">
          <mxGeometry y="90" width="180" height="30" as="geometry" />
        </mxCell>
        <mxCell id="U3UQ6ggZmRZWPa7_rUBg-130" value="FK" style="shape=partialRectangle;connectable=0;fillColor=none;top=0;left=0;bottom=0;right=0;fontStyle=0;overflow=hidden;whiteSpace=wrap;html=1;strokeColor=#BAC8D3;fontColor=#182E3E;" vertex="1" parent="U3UQ6ggZmRZWPa7_rUBg-129">
          <mxGeometry width="30" height="30" as="geometry">
            <mxRectangle width="30" height="30" as="alternateBounds" />
          </mxGeometry>
        </mxCell>
        <mxCell id="U3UQ6ggZmRZWPa7_rUBg-131" value="username" style="shape=partialRectangle;connectable=0;fillColor=none;top=0;left=0;bottom=0;right=0;align=left;spacingLeft=6;fontStyle=0;overflow=hidden;whiteSpace=wrap;html=1;strokeColor=#BAC8D3;fontColor=#182E3E;" vertex="1" parent="U3UQ6ggZmRZWPa7_rUBg-129">
          <mxGeometry x="30" width="150" height="30" as="geometry">
            <mxRectangle width="150" height="30" as="alternateBounds" />
          </mxGeometry>
        </mxCell>
        <mxCell id="U3UQ6ggZmRZWPa7_rUBg-101" value="" style="shape=tableRow;horizontal=0;startSize=0;swimlaneHead=0;swimlaneBody=0;fillColor=none;collapsible=0;dropTarget=0;points=[[0,0.5],[1,0.5]];portConstraint=eastwest;top=0;left=0;right=0;bottom=0;strokeColor=#BAC8D3;fontColor=#182E3E;" vertex="1" parent="U3UQ6ggZmRZWPa7_rUBg-88">
          <mxGeometry y="120" width="180" height="30" as="geometry" />
        </mxCell>
        <mxCell id="U3UQ6ggZmRZWPa7_rUBg-102" value="" style="shape=partialRectangle;connectable=0;fillColor=none;top=0;left=0;bottom=0;right=0;editable=1;overflow=hidden;whiteSpace=wrap;html=1;strokeColor=#BAC8D3;fontColor=#182E3E;" vertex="1" parent="U3UQ6ggZmRZWPa7_rUBg-101">
          <mxGeometry width="30" height="30" as="geometry">
            <mxRectangle width="30" height="30" as="alternateBounds" />
          </mxGeometry>
        </mxCell>
        <mxCell id="U3UQ6ggZmRZWPa7_rUBg-103" value="deliveryAddress" style="shape=partialRectangle;connectable=0;fillColor=none;top=0;left=0;bottom=0;right=0;align=left;spacingLeft=6;overflow=hidden;whiteSpace=wrap;html=1;strokeColor=#BAC8D3;fontColor=#182E3E;" vertex="1" parent="U3UQ6ggZmRZWPa7_rUBg-101">
          <mxGeometry x="30" width="150" height="30" as="geometry">
            <mxRectangle width="150" height="30" as="alternateBounds" />
          </mxGeometry>
        </mxCell>
        <mxCell id="U3UQ6ggZmRZWPa7_rUBg-104" value="" style="shape=tableRow;horizontal=0;startSize=0;swimlaneHead=0;swimlaneBody=0;fillColor=none;collapsible=0;dropTarget=0;points=[[0,0.5],[1,0.5]];portConstraint=eastwest;top=0;left=0;right=0;bottom=0;strokeColor=#BAC8D3;fontColor=#182E3E;" vertex="1" parent="U3UQ6ggZmRZWPa7_rUBg-88">
          <mxGeometry y="150" width="180" height="30" as="geometry" />
        </mxCell>
        <mxCell id="U3UQ6ggZmRZWPa7_rUBg-105" value="" style="shape=partialRectangle;connectable=0;fillColor=none;top=0;left=0;bottom=0;right=0;editable=1;overflow=hidden;whiteSpace=wrap;html=1;strokeColor=#BAC8D3;fontColor=#182E3E;" vertex="1" parent="U3UQ6ggZmRZWPa7_rUBg-104">
          <mxGeometry width="30" height="30" as="geometry">
            <mxRectangle width="30" height="30" as="alternateBounds" />
          </mxGeometry>
        </mxCell>
        <mxCell id="U3UQ6ggZmRZWPa7_rUBg-106" value="deliveryFee" style="shape=partialRectangle;connectable=0;fillColor=none;top=0;left=0;bottom=0;right=0;align=left;spacingLeft=6;overflow=hidden;whiteSpace=wrap;html=1;strokeColor=#BAC8D3;fontColor=#182E3E;" vertex="1" parent="U3UQ6ggZmRZWPa7_rUBg-104">
          <mxGeometry x="30" width="150" height="30" as="geometry">
            <mxRectangle width="150" height="30" as="alternateBounds" />
          </mxGeometry>
        </mxCell>
        <mxCell id="U3UQ6ggZmRZWPa7_rUBg-126" value="" style="shape=tableRow;horizontal=0;startSize=0;swimlaneHead=0;swimlaneBody=0;fillColor=none;collapsible=0;dropTarget=0;points=[[0,0.5],[1,0.5]];portConstraint=eastwest;top=0;left=0;right=0;bottom=0;strokeColor=#BAC8D3;fontColor=#182E3E;" vertex="1" parent="U3UQ6ggZmRZWPa7_rUBg-88">
          <mxGeometry y="180" width="180" height="30" as="geometry" />
        </mxCell>
        <mxCell id="U3UQ6ggZmRZWPa7_rUBg-127" value="" style="shape=partialRectangle;connectable=0;fillColor=none;top=0;left=0;bottom=0;right=0;editable=1;overflow=hidden;strokeColor=#BAC8D3;fontColor=#182E3E;" vertex="1" parent="U3UQ6ggZmRZWPa7_rUBg-126">
          <mxGeometry width="30" height="30" as="geometry">
            <mxRectangle width="30" height="30" as="alternateBounds" />
          </mxGeometry>
        </mxCell>
        <mxCell id="U3UQ6ggZmRZWPa7_rUBg-128" value="totalPrice" style="shape=partialRectangle;connectable=0;fillColor=none;top=0;left=0;bottom=0;right=0;align=left;spacingLeft=6;overflow=hidden;strokeColor=#BAC8D3;fontColor=#182E3E;" vertex="1" parent="U3UQ6ggZmRZWPa7_rUBg-126">
          <mxGeometry x="30" width="150" height="30" as="geometry">
            <mxRectangle width="150" height="30" as="alternateBounds" />
          </mxGeometry>
        </mxCell>
        <mxCell id="U3UQ6ggZmRZWPa7_rUBg-201" style="edgeStyle=orthogonalEdgeStyle;rounded=0;orthogonalLoop=1;jettySize=auto;html=1;exitX=0.5;exitY=0;exitDx=0;exitDy=0;strokeColor=light-dark(#000000, #202020);fontColor=#FFFFFF;endArrow=none;startFill=0;" edge="1" parent="1" source="U3UQ6ggZmRZWPa7_rUBg-107" target="U3UQ6ggZmRZWPa7_rUBg-69">
          <mxGeometry relative="1" as="geometry" />
        </mxCell>
        <mxCell id="U3UQ6ggZmRZWPa7_rUBg-107" value="User" style="shape=table;startSize=30;container=1;collapsible=1;childLayout=tableLayout;fixedRows=1;rowLines=0;fontStyle=1;align=center;resizeLast=1;html=1;strokeColor=#BAC8D3;fontColor=#182E3E;fillColor=#B1DDF0;" vertex="1" parent="1">
          <mxGeometry x="965" y="360" width="180" height="260" as="geometry" />
        </mxCell>
        <mxCell id="U3UQ6ggZmRZWPa7_rUBg-108" value="" style="shape=tableRow;horizontal=0;startSize=0;swimlaneHead=0;swimlaneBody=0;fillColor=none;collapsible=0;dropTarget=0;points=[[0,0.5],[1,0.5]];portConstraint=eastwest;top=0;left=0;right=0;bottom=1;strokeColor=#BAC8D3;fontColor=#182E3E;" vertex="1" parent="U3UQ6ggZmRZWPa7_rUBg-107">
          <mxGeometry y="30" width="180" height="30" as="geometry" />
        </mxCell>
        <mxCell id="U3UQ6ggZmRZWPa7_rUBg-109" value="PK" style="shape=partialRectangle;connectable=0;fillColor=none;top=0;left=0;bottom=0;right=0;fontStyle=1;overflow=hidden;whiteSpace=wrap;html=1;strokeColor=#BAC8D3;fontColor=#182E3E;" vertex="1" parent="U3UQ6ggZmRZWPa7_rUBg-108">
          <mxGeometry width="30" height="30" as="geometry">
            <mxRectangle width="30" height="30" as="alternateBounds" />
          </mxGeometry>
        </mxCell>
        <mxCell id="U3UQ6ggZmRZWPa7_rUBg-110" value="username" style="shape=partialRectangle;connectable=0;fillColor=none;top=0;left=0;bottom=0;right=0;align=left;spacingLeft=6;fontStyle=5;overflow=hidden;whiteSpace=wrap;html=1;strokeColor=#BAC8D3;fontColor=#182E3E;" vertex="1" parent="U3UQ6ggZmRZWPa7_rUBg-108">
          <mxGeometry x="30" width="150" height="30" as="geometry">
            <mxRectangle width="150" height="30" as="alternateBounds" />
          </mxGeometry>
        </mxCell>
        <mxCell id="U3UQ6ggZmRZWPa7_rUBg-111" value="" style="shape=tableRow;horizontal=0;startSize=0;swimlaneHead=0;swimlaneBody=0;fillColor=none;collapsible=0;dropTarget=0;points=[[0,0.5],[1,0.5]];portConstraint=eastwest;top=0;left=0;right=0;bottom=0;strokeColor=#BAC8D3;fontColor=#182E3E;" vertex="1" parent="U3UQ6ggZmRZWPa7_rUBg-107">
          <mxGeometry y="60" width="180" height="50" as="geometry" />
        </mxCell>
        <mxCell id="U3UQ6ggZmRZWPa7_rUBg-112" value="" style="shape=partialRectangle;connectable=0;fillColor=none;top=0;left=0;bottom=0;right=0;fontStyle=0;overflow=hidden;whiteSpace=wrap;html=1;strokeColor=#BAC8D3;fontColor=#182E3E;" vertex="1" parent="U3UQ6ggZmRZWPa7_rUBg-111">
          <mxGeometry width="30" height="50" as="geometry">
            <mxRectangle width="30" height="50" as="alternateBounds" />
          </mxGeometry>
        </mxCell>
        <mxCell id="U3UQ6ggZmRZWPa7_rUBg-113" value="name&lt;div&gt;&lt;span style=&quot;white-space: pre;&quot;&gt;&#x9;&lt;/span&gt;fName&lt;br&gt;&lt;/div&gt;&lt;div&gt;&lt;span style=&quot;white-space: pre;&quot;&gt;&#x9;&lt;/span&gt;lName&lt;br&gt;&lt;/div&gt;" style="shape=partialRectangle;connectable=0;fillColor=none;top=0;left=0;bottom=0;right=0;align=left;spacingLeft=6;fontStyle=0;overflow=hidden;whiteSpace=wrap;html=1;strokeColor=#BAC8D3;fontColor=#182E3E;" vertex="1" parent="U3UQ6ggZmRZWPa7_rUBg-111">
          <mxGeometry x="30" width="150" height="50" as="geometry">
            <mxRectangle width="150" height="50" as="alternateBounds" />
          </mxGeometry>
        </mxCell>
        <mxCell id="U3UQ6ggZmRZWPa7_rUBg-114" value="" style="shape=tableRow;horizontal=0;startSize=0;swimlaneHead=0;swimlaneBody=0;fillColor=none;collapsible=0;dropTarget=0;points=[[0,0.5],[1,0.5]];portConstraint=eastwest;top=0;left=0;right=0;bottom=0;strokeColor=#BAC8D3;fontColor=#182E3E;" vertex="1" parent="U3UQ6ggZmRZWPa7_rUBg-107">
          <mxGeometry y="110" width="180" height="30" as="geometry" />
        </mxCell>
        <mxCell id="U3UQ6ggZmRZWPa7_rUBg-115" value="" style="shape=partialRectangle;connectable=0;fillColor=none;top=0;left=0;bottom=0;right=0;fontStyle=0;overflow=hidden;whiteSpace=wrap;html=1;strokeColor=#BAC8D3;fontColor=#182E3E;" vertex="1" parent="U3UQ6ggZmRZWPa7_rUBg-114">
          <mxGeometry width="30" height="30" as="geometry">
            <mxRectangle width="30" height="30" as="alternateBounds" />
          </mxGeometry>
        </mxCell>
        <mxCell id="U3UQ6ggZmRZWPa7_rUBg-116" value="&lt;div&gt;&lt;br&gt;&lt;/div&gt;" style="shape=partialRectangle;connectable=0;fillColor=none;top=0;left=0;bottom=0;right=0;align=left;spacingLeft=6;fontStyle=0;overflow=hidden;whiteSpace=wrap;html=1;strokeColor=#BAC8D3;fontColor=#182E3E;" vertex="1" parent="U3UQ6ggZmRZWPa7_rUBg-114">
          <mxGeometry x="30" width="150" height="30" as="geometry">
            <mxRectangle width="150" height="30" as="alternateBounds" />
          </mxGeometry>
        </mxCell>
        <mxCell id="U3UQ6ggZmRZWPa7_rUBg-120" value="" style="shape=tableRow;horizontal=0;startSize=0;swimlaneHead=0;swimlaneBody=0;fillColor=none;collapsible=0;dropTarget=0;points=[[0,0.5],[1,0.5]];portConstraint=eastwest;top=0;left=0;right=0;bottom=0;strokeColor=#BAC8D3;fontColor=#182E3E;" vertex="1" parent="U3UQ6ggZmRZWPa7_rUBg-107">
          <mxGeometry y="140" width="180" height="30" as="geometry" />
        </mxCell>
        <mxCell id="U3UQ6ggZmRZWPa7_rUBg-121" value="" style="shape=partialRectangle;connectable=0;fillColor=none;top=0;left=0;bottom=0;right=0;editable=1;overflow=hidden;whiteSpace=wrap;html=1;strokeColor=#BAC8D3;fontColor=#182E3E;" vertex="1" parent="U3UQ6ggZmRZWPa7_rUBg-120">
          <mxGeometry width="30" height="30" as="geometry">
            <mxRectangle width="30" height="30" as="alternateBounds" />
          </mxGeometry>
        </mxCell>
        <mxCell id="U3UQ6ggZmRZWPa7_rUBg-122" value="Address" style="shape=partialRectangle;connectable=0;fillColor=none;top=0;left=0;bottom=0;right=0;align=left;spacingLeft=6;overflow=hidden;whiteSpace=wrap;html=1;strokeColor=#BAC8D3;fontColor=#182E3E;" vertex="1" parent="U3UQ6ggZmRZWPa7_rUBg-120">
          <mxGeometry x="30" width="150" height="30" as="geometry">
            <mxRectangle width="150" height="30" as="alternateBounds" />
          </mxGeometry>
        </mxCell>
        <mxCell id="U3UQ6ggZmRZWPa7_rUBg-123" value="" style="shape=tableRow;horizontal=0;startSize=0;swimlaneHead=0;swimlaneBody=0;fillColor=none;collapsible=0;dropTarget=0;points=[[0,0.5],[1,0.5]];portConstraint=eastwest;top=0;left=0;right=0;bottom=0;strokeColor=#BAC8D3;fontColor=#182E3E;" vertex="1" parent="U3UQ6ggZmRZWPa7_rUBg-107">
          <mxGeometry y="170" width="180" height="30" as="geometry" />
        </mxCell>
        <mxCell id="U3UQ6ggZmRZWPa7_rUBg-124" value="" style="shape=partialRectangle;connectable=0;fillColor=none;top=0;left=0;bottom=0;right=0;editable=1;overflow=hidden;whiteSpace=wrap;html=1;strokeColor=#BAC8D3;fontColor=#182E3E;" vertex="1" parent="U3UQ6ggZmRZWPa7_rUBg-123">
          <mxGeometry width="30" height="30" as="geometry">
            <mxRectangle width="30" height="30" as="alternateBounds" />
          </mxGeometry>
        </mxCell>
        <mxCell id="U3UQ6ggZmRZWPa7_rUBg-125" value="phoneNr" style="shape=partialRectangle;connectable=0;fillColor=none;top=0;left=0;bottom=0;right=0;align=left;spacingLeft=6;overflow=hidden;whiteSpace=wrap;html=1;strokeColor=#BAC8D3;fontColor=#182E3E;" vertex="1" parent="U3UQ6ggZmRZWPa7_rUBg-123">
          <mxGeometry x="30" width="150" height="30" as="geometry">
            <mxRectangle width="150" height="30" as="alternateBounds" />
          </mxGeometry>
        </mxCell>
        <mxCell id="U3UQ6ggZmRZWPa7_rUBg-117" value="" style="shape=tableRow;horizontal=0;startSize=0;swimlaneHead=0;swimlaneBody=0;fillColor=none;collapsible=0;dropTarget=0;points=[[0,0.5],[1,0.5]];portConstraint=eastwest;top=0;left=0;right=0;bottom=0;strokeColor=#BAC8D3;fontColor=#182E3E;" vertex="1" parent="U3UQ6ggZmRZWPa7_rUBg-107">
          <mxGeometry y="200" width="180" height="30" as="geometry" />
        </mxCell>
        <mxCell id="U3UQ6ggZmRZWPa7_rUBg-118" value="" style="shape=partialRectangle;connectable=0;fillColor=none;top=0;left=0;bottom=0;right=0;editable=1;overflow=hidden;whiteSpace=wrap;html=1;strokeColor=#BAC8D3;fontColor=#182E3E;" vertex="1" parent="U3UQ6ggZmRZWPa7_rUBg-117">
          <mxGeometry width="30" height="30" as="geometry">
            <mxRectangle width="30" height="30" as="alternateBounds" />
          </mxGeometry>
        </mxCell>
        <mxCell id="U3UQ6ggZmRZWPa7_rUBg-119" value="e-mail" style="shape=partialRectangle;connectable=0;fillColor=none;top=0;left=0;bottom=0;right=0;align=left;spacingLeft=6;overflow=hidden;whiteSpace=wrap;html=1;strokeColor=#BAC8D3;fontColor=#182E3E;" vertex="1" parent="U3UQ6ggZmRZWPa7_rUBg-117">
          <mxGeometry x="30" width="150" height="30" as="geometry">
            <mxRectangle width="150" height="30" as="alternateBounds" />
          </mxGeometry>
        </mxCell>
        <mxCell id="U3UQ6ggZmRZWPa7_rUBg-179" value="" style="shape=tableRow;horizontal=0;startSize=0;swimlaneHead=0;swimlaneBody=0;fillColor=none;collapsible=0;dropTarget=0;points=[[0,0.5],[1,0.5]];portConstraint=eastwest;top=0;left=0;right=0;bottom=0;strokeColor=#BAC8D3;fontColor=#182E3E;" vertex="1" parent="U3UQ6ggZmRZWPa7_rUBg-107">
          <mxGeometry y="230" width="180" height="30" as="geometry" />
        </mxCell>
        <mxCell id="U3UQ6ggZmRZWPa7_rUBg-180" value="" style="shape=partialRectangle;connectable=0;fillColor=none;top=0;left=0;bottom=0;right=0;editable=1;overflow=hidden;strokeColor=#BAC8D3;fontColor=#182E3E;" vertex="1" parent="U3UQ6ggZmRZWPa7_rUBg-179">
          <mxGeometry width="30" height="30" as="geometry">
            <mxRectangle width="30" height="30" as="alternateBounds" />
          </mxGeometry>
        </mxCell>
        <mxCell id="U3UQ6ggZmRZWPa7_rUBg-181" value="password" style="shape=partialRectangle;connectable=0;fillColor=none;top=0;left=0;bottom=0;right=0;align=left;spacingLeft=6;overflow=hidden;strokeColor=#BAC8D3;fontColor=#182E3E;" vertex="1" parent="U3UQ6ggZmRZWPa7_rUBg-179">
          <mxGeometry x="30" width="150" height="30" as="geometry">
            <mxRectangle width="150" height="30" as="alternateBounds" />
          </mxGeometry>
        </mxCell>
        <mxCell id="U3UQ6ggZmRZWPa7_rUBg-161" style="edgeStyle=orthogonalEdgeStyle;rounded=0;orthogonalLoop=1;jettySize=auto;html=1;exitX=0.5;exitY=0;exitDx=0;exitDy=0;strokeColor=#000000;fontColor=#FFFFFF;fillColor=#f5f5f5;endArrow=block;endFill=0;endSize=12;" edge="1" parent="1" source="U3UQ6ggZmRZWPa7_rUBg-135" target="U3UQ6ggZmRZWPa7_rUBg-107">
          <mxGeometry relative="1" as="geometry" />
        </mxCell>
        <mxCell id="U3UQ6ggZmRZWPa7_rUBg-135" value="subMember" style="shape=table;startSize=30;container=1;collapsible=1;childLayout=tableLayout;fixedRows=1;rowLines=0;fontStyle=1;align=center;resizeLast=1;html=1;strokeColor=#BAC8D3;fontColor=#182E3E;fillColor=#B1DDF0;" vertex="1" parent="1">
          <mxGeometry x="800" y="720" width="180" height="60" as="geometry" />
        </mxCell>
        <mxCell id="U3UQ6ggZmRZWPa7_rUBg-136" value="" style="shape=tableRow;horizontal=0;startSize=0;swimlaneHead=0;swimlaneBody=0;fillColor=none;collapsible=0;dropTarget=0;points=[[0,0.5],[1,0.5]];portConstraint=eastwest;top=0;left=0;right=0;bottom=1;strokeColor=#BAC8D3;fontColor=#182E3E;" vertex="1" parent="U3UQ6ggZmRZWPa7_rUBg-135">
          <mxGeometry y="30" width="180" height="30" as="geometry" />
        </mxCell>
        <mxCell id="U3UQ6ggZmRZWPa7_rUBg-137" value="fk" style="shape=partialRectangle;connectable=0;fillColor=none;top=0;left=0;bottom=0;right=0;fontStyle=1;overflow=hidden;whiteSpace=wrap;html=1;strokeColor=#BAC8D3;fontColor=#182E3E;" vertex="1" parent="U3UQ6ggZmRZWPa7_rUBg-136">
          <mxGeometry width="30" height="30" as="geometry">
            <mxRectangle width="30" height="30" as="alternateBounds" />
          </mxGeometry>
        </mxCell>
        <mxCell id="U3UQ6ggZmRZWPa7_rUBg-138" value="deliveryFee = 0" style="shape=partialRectangle;connectable=0;fillColor=none;top=0;left=0;bottom=0;right=0;align=left;spacingLeft=6;fontStyle=5;overflow=hidden;whiteSpace=wrap;html=1;strokeColor=#BAC8D3;fontColor=#182E3E;" vertex="1" parent="U3UQ6ggZmRZWPa7_rUBg-136">
          <mxGeometry x="30" width="150" height="30" as="geometry">
            <mxRectangle width="150" height="30" as="alternateBounds" />
          </mxGeometry>
        </mxCell>
        <mxCell id="U3UQ6ggZmRZWPa7_rUBg-162" style="edgeStyle=orthogonalEdgeStyle;rounded=0;orthogonalLoop=1;jettySize=auto;html=1;exitX=0.5;exitY=0;exitDx=0;exitDy=0;strokeColor=light-dark(#000000, #959595);fontColor=#FFFFFF;fillColor=#f5f5f5;gradientColor=#b3b3b3;endArrow=block;endFill=0;endSize=12;" edge="1" parent="1" source="U3UQ6ggZmRZWPa7_rUBg-148" target="U3UQ6ggZmRZWPa7_rUBg-107">
          <mxGeometry relative="1" as="geometry" />
        </mxCell>
        <mxCell id="U3UQ6ggZmRZWPa7_rUBg-148" value="freeMember" style="shape=table;startSize=30;container=1;collapsible=1;childLayout=tableLayout;fixedRows=1;rowLines=0;fontStyle=1;align=center;resizeLast=1;html=1;strokeColor=#BAC8D3;fontColor=#182E3E;fillColor=#B1DDF0;" vertex="1" parent="1">
          <mxGeometry x="1145" y="720" width="180" height="60" as="geometry" />
        </mxCell>
        <mxCell id="U3UQ6ggZmRZWPa7_rUBg-149" value="" style="shape=tableRow;horizontal=0;startSize=0;swimlaneHead=0;swimlaneBody=0;fillColor=none;collapsible=0;dropTarget=0;points=[[0,0.5],[1,0.5]];portConstraint=eastwest;top=0;left=0;right=0;bottom=1;strokeColor=#BAC8D3;fontColor=#182E3E;" vertex="1" parent="U3UQ6ggZmRZWPa7_rUBg-148">
          <mxGeometry y="30" width="180" height="30" as="geometry" />
        </mxCell>
        <mxCell id="U3UQ6ggZmRZWPa7_rUBg-150" value="" style="shape=partialRectangle;connectable=0;fillColor=none;top=0;left=0;bottom=0;right=0;fontStyle=1;overflow=hidden;whiteSpace=wrap;html=1;strokeColor=#BAC8D3;fontColor=#182E3E;" vertex="1" parent="U3UQ6ggZmRZWPa7_rUBg-149">
          <mxGeometry width="30" height="30" as="geometry">
            <mxRectangle width="30" height="30" as="alternateBounds" />
          </mxGeometry>
        </mxCell>
        <mxCell id="U3UQ6ggZmRZWPa7_rUBg-151" value="" style="shape=partialRectangle;connectable=0;fillColor=none;top=0;left=0;bottom=0;right=0;align=left;spacingLeft=6;fontStyle=5;overflow=hidden;whiteSpace=wrap;html=1;strokeColor=#BAC8D3;fontColor=#182E3E;" vertex="1" parent="U3UQ6ggZmRZWPa7_rUBg-149">
          <mxGeometry x="30" width="150" height="30" as="geometry">
            <mxRectangle width="150" height="30" as="alternateBounds" />
          </mxGeometry>
        </mxCell>
        <mxCell id="U3UQ6ggZmRZWPa7_rUBg-199" style="edgeStyle=orthogonalEdgeStyle;rounded=0;orthogonalLoop=1;jettySize=auto;html=1;exitX=0.5;exitY=0;exitDx=0;exitDy=0;strokeColor=light-dark(#000000, #202020);fontColor=#FFFFFF;entryX=0;entryY=0.5;entryDx=0;entryDy=0;endArrow=none;startFill=0;" edge="1" parent="1" source="U3UQ6ggZmRZWPa7_rUBg-163" target="U3UQ6ggZmRZWPa7_rUBg-76">
          <mxGeometry relative="1" as="geometry">
            <mxPoint x="730" y="300" as="targetPoint" />
          </mxGeometry>
        </mxCell>
        <mxCell id="U3UQ6ggZmRZWPa7_rUBg-163" value="Delivery" style="shape=table;startSize=30;container=1;collapsible=1;childLayout=tableLayout;fixedRows=1;rowLines=0;fontStyle=1;align=center;resizeLast=1;html=1;strokeColor=#BAC8D3;fontColor=#182E3E;fillColor=#B1DDF0;" vertex="1" parent="1">
          <mxGeometry x="680" y="380" width="180" height="180" as="geometry" />
        </mxCell>
        <mxCell id="U3UQ6ggZmRZWPa7_rUBg-164" value="" style="shape=tableRow;horizontal=0;startSize=0;swimlaneHead=0;swimlaneBody=0;fillColor=none;collapsible=0;dropTarget=0;points=[[0,0.5],[1,0.5]];portConstraint=eastwest;top=0;left=0;right=0;bottom=1;strokeColor=#BAC8D3;fontColor=#182E3E;" vertex="1" parent="U3UQ6ggZmRZWPa7_rUBg-163">
          <mxGeometry y="30" width="180" height="30" as="geometry" />
        </mxCell>
        <mxCell id="U3UQ6ggZmRZWPa7_rUBg-165" value="PK" style="shape=partialRectangle;connectable=0;fillColor=none;top=0;left=0;bottom=0;right=0;fontStyle=1;overflow=hidden;whiteSpace=wrap;html=1;strokeColor=#BAC8D3;fontColor=#182E3E;" vertex="1" parent="U3UQ6ggZmRZWPa7_rUBg-164">
          <mxGeometry width="30" height="30" as="geometry">
            <mxRectangle width="30" height="30" as="alternateBounds" />
          </mxGeometry>
        </mxCell>
        <mxCell id="U3UQ6ggZmRZWPa7_rUBg-166" value="deliveryID" style="shape=partialRectangle;connectable=0;fillColor=none;top=0;left=0;bottom=0;right=0;align=left;spacingLeft=6;fontStyle=5;overflow=hidden;whiteSpace=wrap;html=1;strokeColor=#BAC8D3;fontColor=#182E3E;" vertex="1" parent="U3UQ6ggZmRZWPa7_rUBg-164">
          <mxGeometry x="30" width="150" height="30" as="geometry">
            <mxRectangle width="150" height="30" as="alternateBounds" />
          </mxGeometry>
        </mxCell>
        <mxCell id="U3UQ6ggZmRZWPa7_rUBg-167" value="" style="shape=tableRow;horizontal=0;startSize=0;swimlaneHead=0;swimlaneBody=0;fillColor=none;collapsible=0;dropTarget=0;points=[[0,0.5],[1,0.5]];portConstraint=eastwest;top=0;left=0;right=0;bottom=0;strokeColor=#BAC8D3;fontColor=#182E3E;" vertex="1" parent="U3UQ6ggZmRZWPa7_rUBg-163">
          <mxGeometry y="60" width="180" height="30" as="geometry" />
        </mxCell>
        <mxCell id="U3UQ6ggZmRZWPa7_rUBg-168" value="FK" style="shape=partialRectangle;connectable=0;fillColor=none;top=0;left=0;bottom=0;right=0;fontStyle=0;overflow=hidden;whiteSpace=wrap;html=1;strokeColor=#BAC8D3;fontColor=#182E3E;" vertex="1" parent="U3UQ6ggZmRZWPa7_rUBg-167">
          <mxGeometry width="30" height="30" as="geometry">
            <mxRectangle width="30" height="30" as="alternateBounds" />
          </mxGeometry>
        </mxCell>
        <mxCell id="U3UQ6ggZmRZWPa7_rUBg-169" value="orderID" style="shape=partialRectangle;connectable=0;fillColor=none;top=0;left=0;bottom=0;right=0;align=left;spacingLeft=6;fontStyle=0;overflow=hidden;whiteSpace=wrap;html=1;strokeColor=#BAC8D3;fontColor=#182E3E;" vertex="1" parent="U3UQ6ggZmRZWPa7_rUBg-167">
          <mxGeometry x="30" width="150" height="30" as="geometry">
            <mxRectangle width="150" height="30" as="alternateBounds" />
          </mxGeometry>
        </mxCell>
        <mxCell id="U3UQ6ggZmRZWPa7_rUBg-170" value="" style="shape=tableRow;horizontal=0;startSize=0;swimlaneHead=0;swimlaneBody=0;fillColor=none;collapsible=0;dropTarget=0;points=[[0,0.5],[1,0.5]];portConstraint=eastwest;top=0;left=0;right=0;bottom=0;strokeColor=#BAC8D3;fontColor=#182E3E;" vertex="1" parent="U3UQ6ggZmRZWPa7_rUBg-163">
          <mxGeometry y="90" width="180" height="30" as="geometry" />
        </mxCell>
        <mxCell id="U3UQ6ggZmRZWPa7_rUBg-171" value="FK" style="shape=partialRectangle;connectable=0;fillColor=none;top=0;left=0;bottom=0;right=0;fontStyle=0;overflow=hidden;whiteSpace=wrap;html=1;strokeColor=#BAC8D3;fontColor=#182E3E;" vertex="1" parent="U3UQ6ggZmRZWPa7_rUBg-170">
          <mxGeometry width="30" height="30" as="geometry">
            <mxRectangle width="30" height="30" as="alternateBounds" />
          </mxGeometry>
        </mxCell>
        <mxCell id="U3UQ6ggZmRZWPa7_rUBg-172" value="driverID" style="shape=partialRectangle;connectable=0;fillColor=none;top=0;left=0;bottom=0;right=0;align=left;spacingLeft=6;fontStyle=0;overflow=hidden;whiteSpace=wrap;html=1;strokeColor=#BAC8D3;fontColor=#182E3E;" vertex="1" parent="U3UQ6ggZmRZWPa7_rUBg-170">
          <mxGeometry x="30" width="150" height="30" as="geometry">
            <mxRectangle width="150" height="30" as="alternateBounds" />
          </mxGeometry>
        </mxCell>
        <mxCell id="U3UQ6ggZmRZWPa7_rUBg-173" value="" style="shape=tableRow;horizontal=0;startSize=0;swimlaneHead=0;swimlaneBody=0;fillColor=none;collapsible=0;dropTarget=0;points=[[0,0.5],[1,0.5]];portConstraint=eastwest;top=0;left=0;right=0;bottom=0;strokeColor=#BAC8D3;fontColor=#182E3E;" vertex="1" parent="U3UQ6ggZmRZWPa7_rUBg-163">
          <mxGeometry y="120" width="180" height="30" as="geometry" />
        </mxCell>
        <mxCell id="U3UQ6ggZmRZWPa7_rUBg-174" value="" style="shape=partialRectangle;connectable=0;fillColor=none;top=0;left=0;bottom=0;right=0;editable=1;overflow=hidden;whiteSpace=wrap;html=1;strokeColor=#BAC8D3;fontColor=#182E3E;" vertex="1" parent="U3UQ6ggZmRZWPa7_rUBg-173">
          <mxGeometry width="30" height="30" as="geometry">
            <mxRectangle width="30" height="30" as="alternateBounds" />
          </mxGeometry>
        </mxCell>
        <mxCell id="U3UQ6ggZmRZWPa7_rUBg-175" value="deliveryStatus" style="shape=partialRectangle;connectable=0;fillColor=none;top=0;left=0;bottom=0;right=0;align=left;spacingLeft=6;overflow=hidden;whiteSpace=wrap;html=1;strokeColor=#BAC8D3;fontColor=#182E3E;" vertex="1" parent="U3UQ6ggZmRZWPa7_rUBg-173">
          <mxGeometry x="30" width="150" height="30" as="geometry">
            <mxRectangle width="150" height="30" as="alternateBounds" />
          </mxGeometry>
        </mxCell>
        <mxCell id="U3UQ6ggZmRZWPa7_rUBg-176" value="" style="shape=tableRow;horizontal=0;startSize=0;swimlaneHead=0;swimlaneBody=0;fillColor=none;collapsible=0;dropTarget=0;points=[[0,0.5],[1,0.5]];portConstraint=eastwest;top=0;left=0;right=0;bottom=0;strokeColor=#BAC8D3;fontColor=#182E3E;" vertex="1" parent="U3UQ6ggZmRZWPa7_rUBg-163">
          <mxGeometry y="150" width="180" height="30" as="geometry" />
        </mxCell>
        <mxCell id="U3UQ6ggZmRZWPa7_rUBg-177" value="" style="shape=partialRectangle;connectable=0;fillColor=none;top=0;left=0;bottom=0;right=0;editable=1;overflow=hidden;whiteSpace=wrap;html=1;strokeColor=#BAC8D3;fontColor=#182E3E;" vertex="1" parent="U3UQ6ggZmRZWPa7_rUBg-176">
          <mxGeometry width="30" height="30" as="geometry">
            <mxRectangle width="30" height="30" as="alternateBounds" />
          </mxGeometry>
        </mxCell>
        <mxCell id="U3UQ6ggZmRZWPa7_rUBg-178" value="phoneNr" style="shape=partialRectangle;connectable=0;fillColor=none;top=0;left=0;bottom=0;right=0;align=left;spacingLeft=6;overflow=hidden;whiteSpace=wrap;html=1;strokeColor=#BAC8D3;fontColor=#182E3E;" vertex="1" parent="U3UQ6ggZmRZWPa7_rUBg-176">
          <mxGeometry x="30" width="150" height="30" as="geometry">
            <mxRectangle width="150" height="30" as="alternateBounds" />
          </mxGeometry>
        </mxCell>
        <mxCell id="U3UQ6ggZmRZWPa7_rUBg-198" style="edgeStyle=orthogonalEdgeStyle;rounded=0;orthogonalLoop=1;jettySize=auto;html=1;exitX=0.5;exitY=0;exitDx=0;exitDy=0;strokeColor=#000000;fontColor=#FFFFFF;fillColor=#f5f5f5;entryX=0;entryY=0.5;entryDx=0;entryDy=0;endArrow=none;startFill=0;" edge="1" parent="1" source="U3UQ6ggZmRZWPa7_rUBg-182" target="U3UQ6ggZmRZWPa7_rUBg-167">
          <mxGeometry relative="1" as="geometry" />
        </mxCell>
        <mxCell id="U3UQ6ggZmRZWPa7_rUBg-182" value="Driver" style="shape=table;startSize=30;container=1;collapsible=1;childLayout=tableLayout;fixedRows=1;rowLines=0;fontStyle=1;align=center;resizeLast=1;html=1;strokeColor=#BAC8D3;fontColor=#182E3E;fillColor=#B1DDF0;" vertex="1" parent="1">
          <mxGeometry x="390" y="610" width="180" height="200" as="geometry" />
        </mxCell>
        <mxCell id="U3UQ6ggZmRZWPa7_rUBg-183" value="" style="shape=tableRow;horizontal=0;startSize=0;swimlaneHead=0;swimlaneBody=0;fillColor=none;collapsible=0;dropTarget=0;points=[[0,0.5],[1,0.5]];portConstraint=eastwest;top=0;left=0;right=0;bottom=1;strokeColor=#BAC8D3;fontColor=#182E3E;" vertex="1" parent="U3UQ6ggZmRZWPa7_rUBg-182">
          <mxGeometry y="30" width="180" height="30" as="geometry" />
        </mxCell>
        <mxCell id="U3UQ6ggZmRZWPa7_rUBg-184" value="PK" style="shape=partialRectangle;connectable=0;fillColor=none;top=0;left=0;bottom=0;right=0;fontStyle=1;overflow=hidden;whiteSpace=wrap;html=1;strokeColor=#BAC8D3;fontColor=#182E3E;" vertex="1" parent="U3UQ6ggZmRZWPa7_rUBg-183">
          <mxGeometry width="30" height="30" as="geometry">
            <mxRectangle width="30" height="30" as="alternateBounds" />
          </mxGeometry>
        </mxCell>
        <mxCell id="U3UQ6ggZmRZWPa7_rUBg-185" value="driverID" style="shape=partialRectangle;connectable=0;fillColor=none;top=0;left=0;bottom=0;right=0;align=left;spacingLeft=6;fontStyle=5;overflow=hidden;whiteSpace=wrap;html=1;strokeColor=#BAC8D3;fontColor=#182E3E;" vertex="1" parent="U3UQ6ggZmRZWPa7_rUBg-183">
          <mxGeometry x="30" width="150" height="30" as="geometry">
            <mxRectangle width="150" height="30" as="alternateBounds" />
          </mxGeometry>
        </mxCell>
        <mxCell id="U3UQ6ggZmRZWPa7_rUBg-186" value="" style="shape=tableRow;horizontal=0;startSize=0;swimlaneHead=0;swimlaneBody=0;fillColor=none;collapsible=0;dropTarget=0;points=[[0,0.5],[1,0.5]];portConstraint=eastwest;top=0;left=0;right=0;bottom=0;strokeColor=#BAC8D3;fontColor=#182E3E;" vertex="1" parent="U3UQ6ggZmRZWPa7_rUBg-182">
          <mxGeometry y="60" width="180" height="50" as="geometry" />
        </mxCell>
        <mxCell id="U3UQ6ggZmRZWPa7_rUBg-187" value="" style="shape=partialRectangle;connectable=0;fillColor=none;top=0;left=0;bottom=0;right=0;fontStyle=0;overflow=hidden;whiteSpace=wrap;html=1;strokeColor=#BAC8D3;fontColor=#182E3E;" vertex="1" parent="U3UQ6ggZmRZWPa7_rUBg-186">
          <mxGeometry width="30" height="50" as="geometry">
            <mxRectangle width="30" height="50" as="alternateBounds" />
          </mxGeometry>
        </mxCell>
        <mxCell id="U3UQ6ggZmRZWPa7_rUBg-188" value="name&lt;div&gt;&lt;span style=&quot;white-space: pre;&quot;&gt;&#x9;&lt;/span&gt;fName&lt;br&gt;&lt;span style=&quot;white-space: pre;&quot;&gt;&#x9;&lt;/span&gt;lName&lt;br&gt;&lt;/div&gt;" style="shape=partialRectangle;connectable=0;fillColor=none;top=0;left=0;bottom=0;right=0;align=left;spacingLeft=6;fontStyle=0;overflow=hidden;whiteSpace=wrap;html=1;strokeColor=#BAC8D3;fontColor=#182E3E;" vertex="1" parent="U3UQ6ggZmRZWPa7_rUBg-186">
          <mxGeometry x="30" width="150" height="50" as="geometry">
            <mxRectangle width="150" height="50" as="alternateBounds" />
          </mxGeometry>
        </mxCell>
        <mxCell id="U3UQ6ggZmRZWPa7_rUBg-189" value="" style="shape=tableRow;horizontal=0;startSize=0;swimlaneHead=0;swimlaneBody=0;fillColor=none;collapsible=0;dropTarget=0;points=[[0,0.5],[1,0.5]];portConstraint=eastwest;top=0;left=0;right=0;bottom=0;strokeColor=#BAC8D3;fontColor=#182E3E;" vertex="1" parent="U3UQ6ggZmRZWPa7_rUBg-182">
          <mxGeometry y="110" width="180" height="30" as="geometry" />
        </mxCell>
        <mxCell id="U3UQ6ggZmRZWPa7_rUBg-190" value="" style="shape=partialRectangle;connectable=0;fillColor=none;top=0;left=0;bottom=0;right=0;fontStyle=0;overflow=hidden;whiteSpace=wrap;html=1;strokeColor=#BAC8D3;fontColor=#182E3E;" vertex="1" parent="U3UQ6ggZmRZWPa7_rUBg-189">
          <mxGeometry width="30" height="30" as="geometry">
            <mxRectangle width="30" height="30" as="alternateBounds" />
          </mxGeometry>
        </mxCell>
        <mxCell id="U3UQ6ggZmRZWPa7_rUBg-191" value="phoneNr" style="shape=partialRectangle;connectable=0;fillColor=none;top=0;left=0;bottom=0;right=0;align=left;spacingLeft=6;fontStyle=0;overflow=hidden;whiteSpace=wrap;html=1;strokeColor=#BAC8D3;fontColor=#182E3E;" vertex="1" parent="U3UQ6ggZmRZWPa7_rUBg-189">
          <mxGeometry x="30" width="150" height="30" as="geometry">
            <mxRectangle width="150" height="30" as="alternateBounds" />
          </mxGeometry>
        </mxCell>
        <mxCell id="U3UQ6ggZmRZWPa7_rUBg-192" value="" style="shape=tableRow;horizontal=0;startSize=0;swimlaneHead=0;swimlaneBody=0;fillColor=none;collapsible=0;dropTarget=0;points=[[0,0.5],[1,0.5]];portConstraint=eastwest;top=0;left=0;right=0;bottom=0;strokeColor=#BAC8D3;fontColor=#182E3E;" vertex="1" parent="U3UQ6ggZmRZWPa7_rUBg-182">
          <mxGeometry y="140" width="180" height="30" as="geometry" />
        </mxCell>
        <mxCell id="U3UQ6ggZmRZWPa7_rUBg-193" value="" style="shape=partialRectangle;connectable=0;fillColor=none;top=0;left=0;bottom=0;right=0;editable=1;overflow=hidden;whiteSpace=wrap;html=1;strokeColor=#BAC8D3;fontColor=#182E3E;" vertex="1" parent="U3UQ6ggZmRZWPa7_rUBg-192">
          <mxGeometry width="30" height="30" as="geometry">
            <mxRectangle width="30" height="30" as="alternateBounds" />
          </mxGeometry>
        </mxCell>
        <mxCell id="U3UQ6ggZmRZWPa7_rUBg-194" value="e-mail" style="shape=partialRectangle;connectable=0;fillColor=none;top=0;left=0;bottom=0;right=0;align=left;spacingLeft=6;overflow=hidden;whiteSpace=wrap;html=1;strokeColor=#BAC8D3;fontColor=#182E3E;" vertex="1" parent="U3UQ6ggZmRZWPa7_rUBg-192">
          <mxGeometry x="30" width="150" height="30" as="geometry">
            <mxRectangle width="150" height="30" as="alternateBounds" />
          </mxGeometry>
        </mxCell>
        <mxCell id="U3UQ6ggZmRZWPa7_rUBg-195" value="" style="shape=tableRow;horizontal=0;startSize=0;swimlaneHead=0;swimlaneBody=0;fillColor=none;collapsible=0;dropTarget=0;points=[[0,0.5],[1,0.5]];portConstraint=eastwest;top=0;left=0;right=0;bottom=0;strokeColor=#BAC8D3;fontColor=#182E3E;" vertex="1" parent="U3UQ6ggZmRZWPa7_rUBg-182">
          <mxGeometry y="170" width="180" height="30" as="geometry" />
        </mxCell>
        <mxCell id="U3UQ6ggZmRZWPa7_rUBg-196" value="" style="shape=partialRectangle;connectable=0;fillColor=none;top=0;left=0;bottom=0;right=0;editable=1;overflow=hidden;whiteSpace=wrap;html=1;strokeColor=#BAC8D3;fontColor=#182E3E;" vertex="1" parent="U3UQ6ggZmRZWPa7_rUBg-195">
          <mxGeometry width="30" height="30" as="geometry">
            <mxRectangle width="30" height="30" as="alternateBounds" />
          </mxGeometry>
        </mxCell>
        <mxCell id="U3UQ6ggZmRZWPa7_rUBg-197" value="avalible - true/false" style="shape=partialRectangle;connectable=0;fillColor=none;top=0;left=0;bottom=0;right=0;align=left;spacingLeft=6;overflow=hidden;whiteSpace=wrap;html=1;strokeColor=#BAC8D3;fontColor=#182E3E;" vertex="1" parent="U3UQ6ggZmRZWPa7_rUBg-195">
          <mxGeometry x="30" width="150" height="30" as="geometry">
            <mxRectangle width="150" height="30" as="alternateBounds" />
          </mxGeometry>
        </mxCell>
        <mxCell id="U3UQ6ggZmRZWPa7_rUBg-200" style="edgeStyle=orthogonalEdgeStyle;rounded=0;orthogonalLoop=1;jettySize=auto;html=1;strokeColor=light-dark(#000000, #202020);fontColor=#FFFFFF;endArrow=none;startFill=0;" edge="1" parent="1" source="U3UQ6ggZmRZWPa7_rUBg-82" target="U3UQ6ggZmRZWPa7_rUBg-39">
          <mxGeometry relative="1" as="geometry" />
        </mxCell>
        <mxCell id="U3UQ6ggZmRZWPa7_rUBg-202" style="edgeStyle=orthogonalEdgeStyle;rounded=0;orthogonalLoop=1;jettySize=auto;html=1;strokeColor=light-dark(#000000, #202020);fontColor=#FFFFFF;entryX=0;entryY=0.5;entryDx=0;entryDy=0;endArrow=none;startFill=0;" edge="1" parent="1" source="U3UQ6ggZmRZWPa7_rUBg-170" target="U3UQ6ggZmRZWPa7_rUBg-114">
          <mxGeometry relative="1" as="geometry" />
        </mxCell>
      </root>
    </mxGraphModel>
  </diagram>
</mxfile>
